Coordinates
version=1
nRows=8
nColumns=46
inDegrees=yes

Units are S.I. units (second, meters, Newtons, ...)
Angles are in degrees.

endheader
time	pelvis_tilt	pelvis_list	pelvis_rotation	pelvis_tx	pelvis_ty	pelvis_tz	bb_angle	bb_tx	bb_ty	bb_tz	hip_flexion_r	hip_adduction_r	hip_rotation_r	knee_angle_r	knee_angle_r_beta	ankle_angle_r	subtalar_angle_r	mtp_angle_r	crank_angle_r	hip_flexion_l	hip_adduction_l	hip_rotation_l	knee_angle_l	knee_angle_l_beta	ankle_angle_l	subtalar_angle_l	mtp_angle_l	crank_angle_l	lumbar_extension	lumbar_bending	lumbar_rotation	arm_flex_r	arm_add_r	arm_rot_r	elbow_flex_r	pro_sup_r	wrist_flex_r	wrist_dev_r	arm_flex_l	arm_add_l	arm_rot_l	elbow_flex_l	pro_sup_l	wrist_flex_l	wrist_dev_l
      0.00000000	    -26.04446854	     -2.95529686	     -2.08702298	      0.15040989	      1.03174053	     -0.22363889	      0.00000000	      0.50000000	      0.00000000	      0.25000000	     87.60940605	     -1.99999798	      1.24061552	     81.62128925	      1.42456024	     12.39059727	     -2.73115855	      0.00000000	      0.00000000	     60.91634145	     -5.62420628	      4.72281824	     77.30929739	      1.34930178	     -4.32039439	    -15.50127451	      0.00000000	      0.00000000	    -40.95310363	      1.64143161	      1.82298566	     83.82837451	     -4.01234007	     27.13185373	     38.02897426	     44.03667260	      0.00000000	      0.00000000	     78.46907657	     -8.44672066	     42.53368685	     19.02653184	     37.55470260	      0.00000000	      0.00000000
      0.00500000	    -26.07588464	     -2.91393980	     -2.05647937	      0.15052859	      1.03176008	     -0.22377308	      0.00000000	      0.50000000	      0.00000000	      0.25000000	     87.64017647	     -2.04536013	      1.29371259	     81.62496851	      1.42462445	     12.39909125	     -2.68124603	      0.00000000	      0.00000000	     60.91922731	     -5.54028477	      4.70764457	     77.25620744	      1.34837519	     -4.48914249	    -15.77017653	      0.00000000	      0.00000000	    -40.95287816	      1.63201606	      1.77700159	     83.72975442	     -4.03750506	     26.91353923	     38.22921549	     44.00751430	      0.00000000	      0.00000000	     78.39548563	     -8.36216761	     41.73039142	     19.17424421	     37.85062125	      0.00000000	      0.00000000
      0.01000000	    -26.11534610	     -2.98044295	     -2.10883861	      0.15066675	      1.03156385	     -0.22358481	      0.00000000	      0.50000000	      0.00000000	      0.25000000	     87.68608683	     -1.93411640	      1.25955379	     81.66664469	      1.42535184	     12.43174366	     -2.79232629	      0.00000000	      0.00000000	     60.99525359	     -5.70735467	      4.65926628	     77.36014109	      1.35018917	     -4.25045527	    -15.51701114	      0.00000000	      0.00000000	    -41.01165325	      1.63255048	      1.80545827	     83.28991748	     -4.19098898	     26.08085241	     39.52879470	     44.06340893	      0.00000000	      0.00000000	     78.21722767	     -8.59797137	     40.43088335	     20.56831322	     38.23315940	      0.00000000	      0.00000000
      0.01500000	    -26.10873856	     -2.96995340	     -2.06658609	      0.15078536	      1.03163058	     -0.22369646	      0.00000000	      0.50000000	      0.00000000	      0.25000000	     87.66918598	     -2.01694091	      1.24496446	     81.65192875	      1.42509500	     12.38310070	     -2.66915208	      0.00000000	      0.00000000	     60.94915139	     -5.60374717	      4.74921262	     77.30103760	      1.34915762	     -4.33213179	    -15.60410786	      0.00000000	      0.00000000	    -40.93583966	      1.68839584	      1.80822488	     83.77154226	     -4.01386284	     27.04784930	     38.02993005	     43.96345542	      0.00000000	      0.00000000	     78.40898395	     -8.14637390	     41.05169004	     18.82451419	     38.13435401	      0.00000000	      0.00000000
      0.02000000	    -26.04981724	     -3.01118068	     -2.09562954	      0.15088961	      1.03182000	     -0.22364864	      0.00000000	      0.50000000	      0.00000000	      0.25000000	     87.60653263	     -2.02903908	      1.14672033	     81.68197815	      1.42561946	     12.42621159	     -2.62975584	      0.00000000	      0.00000000	     60.88020799	     -5.68793137	      4.74309328	     77.32523818	      1.34958000	     -4.24132210	    -15.65385627	      0.00000000	      0.00000000	    -41.00650482	      1.72798256	      1.78873495	     83.87715835	     -3.98902296	     27.31187289	     37.92973215	     43.79556378	      0.00000000	      0.00000000	     78.34818133	     -8.22470930	     40.66551254	     18.98221255	     38.07298442	      0.00000000	      0.00000000
      0.02500000	    -26.04617774	     -2.89898620	     -2.26610898	      0.15090992	      1.03196245	     -0.22310056	      0.00000000	      0.50000000	      0.00000000	      0.25000000	     87.60840547	     -1.75642281	      1.37019904	     81.61109599	      1.42438233	     12.28202143	     -2.79164177	      0.00000000	      0.00000000	     60.82494860	     -5.82512733	      4.52723980	     77.28530220	      1.34888299	     -4.31354458	    -15.56529919	      0.00000000	      0.00000000	    -41.05542441	      1.47584586	      1.92430846	     83.87339782	     -4.46146382	     28.23761466	     38.22694496	     43.82102111	      0.00000000	      0.00000000	     78.55513500	     -8.50530249	     42.68499682	     18.82077586	     38.78940769	      0.00000000	      0.00000000
      0.03000000	    -26.09891452	     -2.90498007	     -2.26964516	      0.15107745	      1.03191564	     -0.22317502	      0.00000000	      0.50000000	      0.00000000	      0.25000000	     87.64833148	     -1.75708620	      1.36746419	     81.59609647	      1.42412054	     12.24872630	     -2.82121978	      0.00000000	      0.00000000	     60.86827212	     -5.82228693	      4.53413082	     77.29830089	      1.34910986	     -4.29391819	    -15.54955666	      0.00000000	      0.00000000	    -41.00159275	      1.51698336	      1.90063138	     83.83123514	     -4.10899750	     27.48750139	     38.04376467	     43.55910097	      0.00000000	      0.00000000	     78.49004675	     -8.19032543	     41.19023278	     18.58523466	     38.86984594	      0.00000000	      0.00000000
      0.03500000	    -26.13225424	     -2.88450613	     -2.27520690	      0.15123084	      1.03189943	     -0.22325018	      0.00000000	      0.50000000	      0.00000000	      0.25000000	     87.67493505	     -1.76273372	      1.39034373	     81.58607183	      1.42394558	     12.22612950	     -2.82116899	      0.00000000	      0.00000000	     60.88024816	     -5.79652783	      4.52410116	     77.29751301	      1.34909611	     -4.27996368	    -15.58270490	      0.00000000	      0.00000000	    -40.97706250	      1.51318647	      1.88340196	     83.81198859	     -4.03637707	     27.31012069	     38.01319173	     43.49541843	      0.00000000	      0.00000000	     78.47357067	     -8.03332130	     40.58675242	     18.45735689	     38.98001212	      0.00000000	      0.00000000
